# File created by Blade
# Date/Time:  Wed Jan 21 16:20:01 2015
# Frame Rate: 120.000 fps
#------------------------------------------------------
:FULLY-SPECIFIED
:DEGREES
977
root 21.061138 35.721058 -21.050488 -176.658493 1.101709 -177.493801
Spine -10.176480 -0.802387 1.392303
Head 7.824416 -0.565327 1.635633
LeftShoulder -10.375213 -29.306261 12.324937
LeftArm 1.778833 8.880065 -15.698232
LeftForeArm 8.932377 -0.000000 -0.447745
LeftHand -3.841850 -0.000000 -4.192571
LeftHandThumb1 -26.253704 0.000000 33.147579
RightShoulder -9.656404 -9.491404 -4.625914
RightArm 7.546601 24.599151 20.873988
RightForeArm -32.664889 -0.000000 7.132129
RightHand -3.945107 0.000000 4.987875
RightHandThumb1 -24.326973 -0.000000 -32.862282
LeftUpLeg 1.643483 -0.015896 8.776599
LeftLeg -5.297240 -0.000000 0.000000
LeftFoot 3.247408 25.433324 5.812087
LeftToeBase -143.738297 -0.000000 0.000000
RightUpLeg 1.682053 -8.101378 4.790689
RightLeg -2.935046 -0.000000 0.000000
RightFoot -19.143199 -25.012995 15.822715
RightToeBase 21.626726 -0.000000 -0.000000
978
root 21.039479 35.711463 -21.077546 -176.697141 1.171142 -177.377004
Spine -10.185500 -0.815722 1.651819
Head 7.741492 -0.411642 1.536880
LeftShoulder -10.521719 -29.560527 12.724579
LeftArm 1.872653 8.412668 -15.056026
LeftForeArm 9.193728 -0.000000 -0.480071
LeftHand -3.963082 -0.000000 -3.938300
LeftHandThumb1 -26.253704 0.000000 33.147579
RightShoulder -9.764308 -9.313612 -5.036477
RightArm 7.364556 25.207913 20.040831
RightForeArm -32.859760 -0.000000 7.091364
RightHand -4.202786 -0.000000 5.045813
RightHandThumb1 -24.326973 -0.000000 -32.862282
LeftUpLeg 1.929561 0.204382 8.887666
LeftLeg -5.632685 -0.000000 0.000000
LeftFoot 3.117249 25.132045 5.850595
LeftToeBase -143.592744 -0.000000 0.000000
RightUpLeg 1.759167 -8.064036 4.862487
RightLeg -2.927134 -0.000000 0.000000
RightFoot -19.178216 -25.009477 15.858460
RightToeBase 21.625965 -0.000000 -0.000000
979
root 21.014460 35.703111 -21.101200 -176.698133 1.239211 -177.287680
Spine -10.244640 -0.843430 1.865280
Head 7.672634 -0.260626 1.495964
LeftShoulder -10.650409 -29.805184 13.102440
LeftArm 1.955069 8.069135 -14.394250
LeftForeArm 9.464243 0.000000 -0.501738
LeftHand -4.130077 -0.000000 -3.646595
LeftHandThumb1 -26.253704 0.000000 33.147579
RightShoulder -9.847554 -9.173802 -5.406331
RightArm 7.177160 25.886171 19.214915
RightForeArm -33.181029 -0.000000 7.029488
RightHand -4.323438 -0.000000 5.042657
RightHandThumb1 -24.326973 -0.000000 -32.862282
LeftUpLeg 2.177629 0.361281 8.953851
LeftLeg -5.993233 -0.000000 0.000000
LeftFoot 3.022343 24.964327 5.829787
LeftToeBase -143.535175 -0.000000 0.000000
RightUpLeg 1.787111 -8.015458 4.903113
RightLeg -2.904904 -0.000000 0.000000
RightFoot -19.216441 -25.011699 15.873959
RightToeBase 21.848066 -0.000000 -0.000000
980
root 20.985687 35.696143 -21.122310 -176.681509 1.326124 -177.211524
Spine -10.311730 -0.853164 2.076031
Head 7.593734 -0.110522 1.412629
LeftShoulder -10.815504 -29.986576 13.449609
LeftArm 2.114228 7.859677 -13.753113
LeftForeArm 9.556012 -0.000000 -0.558462
LeftHand -4.200399 -0.000000 -3.354866
LeftHandThumb1 -26.253704 0.000000 33.147579
RightShoulder -9.926844 -9.026309 -5.776366
RightArm 6.981639 26.588725 18.414340
RightForeArm -33.399664 0.000000 6.955392
RightHand -4.402365 0.000000 4.981934
RightHandThumb1 -24.326973 -0.000000 -32.862282
LeftUpLeg 2.405617 0.586438 8.990562
LeftLeg -6.359121 -0.000000 0.000000
LeftFoot 2.960933 24.820351 5.798487
LeftToeBase -143.558971 -0.000000 0.000000
RightUpLeg 1.794040 -8.000886 4.929186
RightLeg -2.885238 -0.000000 0.000000
RightFoot -19.250908 -24.953052 15.886686
RightToeBase 21.687851 -0.000000 -0.000000
981
root 20.952793 35.690445 -21.144095 -176.631435 1.423639 -177.139387
Spine -10.434218 -0.880553 2.300831
Head 7.548346 0.096436 1.300988
LeftShoulder -10.988786 -30.142206 13.798323
LeftArm 2.209269 7.658018 -13.144243
LeftForeArm 9.812603 -0.000000 -0.578516
LeftHand -4.257567 0.000000 -3.076136
LeftHandThumb1 -26.253704 0.000000 33.147579
RightShoulder -9.961137 -8.839918 -6.183434
RightArm 6.771533 27.212780 17.643171
RightForeArm -33.712557 -0.000000 6.809684
RightHand -4.354230 0.000000 4.810608
RightHandThumb1 -24.326973 -0.000000 -32.862282
LeftUpLeg 2.585786 0.812168 9.007352
LeftLeg -6.690402 -0.000000 0.000000
LeftFoot 2.902614 24.713195 5.772336
LeftToeBase -143.553157 -0.000000 0.000000
RightUpLeg 1.767909 -7.994051 4.946797
RightLeg -2.869082 -0.000000 0.000000
RightFoot -19.259128 -24.870065 15.900324
RightToeBase 21.681950 -0.000000 -0.000000
982
root 20.919401 35.684492 -21.170112 -176.575315 1.421893 -177.078373
Spine -10.592275 -1.001253 2.515445
Head 7.520494 0.279183 1.186692
LeftShoulder -11.130925 -30.255157 14.100981
LeftArm 2.302701 7.620944 -12.510660
LeftForeArm 9.996557 -0.000000 -0.580494
LeftHand -4.284725 -0.000000 -2.888819
LeftHandThumb1 -26.253704 0.000000 33.147579
RightShoulder -10.030467 -8.666822 -6.575140
RightArm 6.602425 27.626105 16.871613
RightForeArm -33.870773 -0.000000 6.654528
RightHand -4.263099 -0.000000 4.761732
RightHandThumb1 -24.326973 -0.000000 -32.862282
LeftUpLeg 2.740855 0.911051 9.012503
LeftLeg -7.022399 -0.000000 0.000000
LeftFoot 2.871143 24.662131 5.782820
LeftToeBase -143.555885 -0.000000 0.000000
RightUpLeg 1.763206 -8.127317 4.952440
RightLeg -2.888742 -0.000000 0.000000
RightFoot -19.253085 -24.748625 15.899646
RightToeBase 21.988211 -0.000000 -0.000000
983
root 20.882093 35.679931 -21.186946 -176.471102 1.445088 -177.022170
Spine -10.777527 -1.132241 2.743614
Head 7.451951 0.503768 1.035747
LeftShoulder -11.328714 -30.362891 14.424188
LeftArm 2.381786 7.482179 -11.941779
LeftForeArm 10.262907 0.000000 -0.599371
LeftHand -4.356015 -0.000000 -2.551475
LeftHandThumb1 -26.253704 0.000000 33.147579
RightShoulder -10.045424 -8.455709 -6.993235
RightArm 6.436471 27.898076 16.151173
RightForeArm -34.154785 -0.000000 6.528831
RightHand -4.424101 -0.000000 4.628994
RightHandThumb1 -24.326973 -0.000000 -32.862282
LeftUpLeg 2.813112 1.063499 8.998567
LeftLeg -7.304341 -0.000000 0.000000
LeftFoot 2.842355 24.625401 5.820747
LeftToeBase -143.528683 -0.000000 0.000000
RightUpLeg 1.684257 -8.137443 4.957436
RightLeg -2.882283 -0.000000 0.000000
RightFoot -19.255261 -24.692127 15.921084
RightToeBase 21.732436 -0.000000 -0.000000
